<?xml version="1.0" encoding="UTF-8"?>
<!DOCTYPE svg PUBLIC "-//W3C//DTD SVG 1.1//EN" "http://www.w3.org/Graphics/SVG/1.1/DTD/svg11.dtd">
<svg xmlns="http://www.w3.org/2000/svg" style="background: #ffffff; background-color: light-dark(#ffffff, var(--ge-dark-color, #121212)); color-scheme: light dark;" xmlns:xlink="http://www.w3.org/1999/xlink" version="1.1" width="118px" height="167px" viewBox="-0.5 -0.5 118 167"><defs/><rect fill="#ffffff" width="100%" height="100%" x="0" y="0" style="fill: light-dark(#ffffff, var(--ge-dark-color, #121212));"/><g><g data-cell-id="0"><g data-cell-id="1"><g data-cell-id="_ZGggXVzwso-4RKRY2Ed-5"/><g data-cell-id="_ZGggXVzwso-4RKRY2Ed-12"><g><rect x="65" y="0" width="52" height="69" fill="#f9eb88" stroke="none" pointer-events="all" style="fill: light-dark(rgb(249, 235, 136), rgb(29, 41, 59));"/></g></g><g data-cell-id="_ZGggXVzwso-4RKRY2Ed-11"><g><rect x="0" y="129" width="90" height="37" fill="#c1e090" stroke="none" pointer-events="all" style="fill: light-dark(rgb(193, 224, 144), rgb(40, 29, 0));"/></g></g><g data-cell-id="_ZGggXVzwso-4RKRY2Ed-3"><g><g><svg version="1.0" width="117" height="166" viewBox="44.79999923706055 15.99999713897705 117.30000305175781 166" preserveAspectRatio="xMidYMid meet" xmlns="http://www.w3.org/2000/svg" x="0" y="-0.5" style="font-family: initial;">&#xa;<metadata>&#xa;Created by potrace 1.16, written by Peter Selinger 2001-2019&#xa;</metadata>&#xa;<g transform="translate(0.000000,200.000000) scale(0.100000,-0.100000)" fill="#000000" stroke="none">&#xa;<path d="M1100 1435 l0 -405 69 0 69 0 4 188 c2 153 6 193 20 218 23 42 79 68&#10;131 61 71 -10 71 -12 77 -250 l5 -212 73 -3 73 -3 -3 228 c-3 215 -4 231 -26&#10;275 -30 60 -83 88 -166 88 -64 0 -111 -18 -147 -56 -12 -13 -26 -24 -31 -24&#10;-4 0 -8 68 -8 150 l0 150 -70 0 -70 0 0 -405z"/>&#xa;<path d="M688 1810 c-63 -11 -124 -46 -162 -93 -27 -34 -31 -48 -34 -113 l-4&#10;-74 92 0 91 0 -20 26 c-89 113 114 183 254 88 21 -14 41 -22 45 -17 53 63 71&#10;95 61 107 -23 27 -109 65 -171 75 -72 12 -85 12 -152 1z"/>&#xa;<path d="M892 1276 c23 -73 -28 -126 -120 -126 -70 0 -130 24 -179 72 l-43 42&#10;-34 -40 c-54 -60 -55 -72 -9 -114 62 -58 139 -83 258 -84 84 0 108 3 153 23&#10;90 41 132 107 132 214 l0 47 -84 0 -84 0 10 -34z"/>&#xa;<path d="M1375 948 c-48 -42 -31 -128 30 -148 60 -20 115 22 115 88 0 71 -89&#10;107 -145 60z"/>&#xa;<path d="M705 938 c-26 -69 -245 -711 -250 -731 l-7 -27 76 0 76 0 27 90 28&#10;90 149 -2 150 -3 27 -85 27 -85 82 -3 c64 -2 81 0 78 10 -3 7 -26 74 -52 148&#10;-26 74 -84 241 -129 370 l-82 235 -98 3 c-72 2 -99 -1 -102 -10z m157 -299&#10;l47 -144 -101 -3 c-55 -1 -102 -1 -104 1 -8 8 90 297 100 294 6 -2 32 -68 58&#10;-148z"/>&#xa;<path d="M1360 470 l0 -290 70 0 70 0 0 290 0 290 -70 0 -70 0 0 -290z"/>&#xa;</g>&#xa;</svg></g></g></g><g data-cell-id="_ZGggXVzwso-4RKRY2Ed-4"><g><ellipse cx="16.5" cy="41.5" rx="7.499999999999999" ry="7.499999999999999" fill="#6d8cc6" stroke="none" pointer-events="all" style="fill: light-dark(rgb(109, 140, 198), rgb(237, 237, 237));"/></g></g><g data-cell-id="_ZGggXVzwso-4RKRY2Ed-6"><g><ellipse cx="46.5" cy="41.5" rx="7.499999999999999" ry="7.499999999999999" fill="#6d8cc6" stroke="none" pointer-events="all" style="fill: light-dark(rgb(109, 140, 198), rgb(237, 237, 237));"/></g></g><g data-cell-id="_ZGggXVzwso-4RKRY2Ed-7"><g><ellipse cx="99" cy="96" rx="8.999999999999998" ry="8.999999999999998" fill="#cd472f" stroke="none" pointer-events="all" style="fill: light-dark(rgb(205, 71, 47), rgb(237, 237, 237));"/></g></g></g></g></g></svg>